<?xml version="1.0" standalone="no"?>
<!DOCTYPE svg PUBLIC "-//W3C//DTD SVG 20010904//EN"
 "http://www.w3.org/TR/2001/REC-SVG-20010904/DTD/svg10.dtd">
<svg version="1.0" xmlns="http://www.w3.org/2000/svg"
 width="2000.000000pt" height="2000.000000pt" viewBox="0 0 2000.000000 2000.000000"
 preserveAspectRatio="xMidYMid meet">
<metadata>
Created by potrace 1.11, written by Peter Selinger 2001-2013
</metadata>
<g transform="translate(0.000000,2000.000000) scale(0.100000,-0.100000)"
fill="#000000" stroke="none">
<path d="M0 9995 l0 -9155 10000 0 10000 0 0 9155 0 9155 -10000 0 -10000 0 0
-9155z m8254 3723 c8 -116 106 -2573 106 -2645 l0 -53 -293 0 -294 0 -154
1081 c-85 594 -156 1084 -159 1088 -7 10 -1613 72 -1623 62 -4 -4 -6 -1483 -5
-3286 l3 -3280 660 -52 c363 -28 663 -52 668 -52 4 -1 7 -116 7 -256 l0 -255
-1795 0 -1795 0 0 254 0 253 38 6 c20 3 295 27 610 53 l572 48 0 3289 0 3290
-77 -6 c-43 -4 -406 -19 -808 -33 -401 -15 -731 -28 -732 -29 -2 -1 -75 -480
-163 -1066 -88 -585 -163 -1074 -165 -1086 l-5 -23 -310 0 -311 0 6 63 c6 62
155 2671 155 2708 0 19 35 19 2929 19 l2929 0 6 -92z m3998 -2265 c659 -2327
669 -2366 813 -2983 80 -344 149 -633 153 -644 5 -12 57 210 145 625 l137 644
662 2358 662 2357 1238 0 1238 0 0 -260 c0 -143 -3 -260 -7 -261 -5 0 -237
-28 -518 -62 l-510 -62 2 -35 c3 -35 741 -6392 746 -6420 2 -11 84 -26 377
-67 206 -28 390 -55 408 -58 l32 -6 0 -254 0 -255 -1352 2 -1353 3 -3 251 -2
252 32 5 c18 4 211 27 428 53 217 26 396 48 398 49 12 9 -592 6519 -615 6638
-7 34 -33 -58 -206 -715 -150 -568 -390 -1417 -981 -3463 l-781 -2710 -307 -3
-307 -2 -30 97 c-998 3253 -1526 5005 -1772 5875 -150 533 -274 966 -276 965
-8 -9 -543 -6559 -543 -6654 l0 -28 438 -49 c240 -26 449 -50 465 -53 l27 -5
0 -254 0 -254 -1230 0 -1230 0 0 254 0 254 28 6 c15 3 194 26 397 52 204 26
372 49 374 51 8 7 690 6468 683 6474 -4 4 -221 32 -482 63 -261 32 -490 60
-507 63 l-33 5 0 259 0 259 1248 0 1247 0 667 -2357z"/>
</g>
</svg>
